<svg xmlns="http://www.w3.org/2000/svg" version="1.1" xmlns:xlink="http://www.w3.org/1999/xlink" xmlns:svgjs="http://svgjs.dev/svgjs" width="2000" height="611" viewBox="0 0 2000 611"><g transform="matrix(1,0,0,1,-1.2120897423999395,-0.8119498342976499)"><svg viewBox="0 0 396 121" data-background-color="#f7d65a" preserveAspectRatio="xMidYMid meet" height="611" width="2000" xmlns="http://www.w3.org/2000/svg" xmlns:xlink="http://www.w3.org/1999/xlink"><defs></defs><g id="tight-bounds" transform="matrix(1,0,0,1,0.2399937689951912,0.1607962396440712)"><svg viewBox="0 0 395.52 120.67840752071184" height="120.67840752071184" width="395.52"><g><svg viewBox="0 0 547.5213727378812 167.05604608" height="120.67840752071184" width="395.52"><g transform="matrix(1,0,0,1,152.00137273788116,51.622743039999996)"><svg viewBox="0 0 395.52 63.810559999999995" height="63.810559999999995" width="395.52"><g><svg viewBox="0 0 395.52 63.810559999999995" height="63.810559999999995" width="395.52"><g><svg viewBox="0 0 395.52 63.810559999999995" height="63.810559999999995" width="395.52"><g transform="matrix(1,0,0,1,0,0)"><svg width="395.52" viewBox="2.049999952316284 -35.650001525878906 224.989990234375 36.30000305175781" height="63.810559999999995" data-palette-color="#f5fd00"><path d="M28.85 0.65L28.85 0.65Q25.65 0.65 22.83-0.65 20-1.95 18.25-4.5 16.5-7.05 16.5-10.75L16.5-10.75 16.5-24.3Q16.5-24.95 16.23-25.43 15.95-25.9 15.5-26.15 15.05-26.4 14.45-26.4L14.45-26.4Q13.85-26.4 13.38-26.15 12.9-25.9 12.63-25.43 12.35-24.95 12.35-24.3L12.35-24.3 12.35 0 2.05 0 2.05-24.2Q2.05-27.85 3.78-30.4 5.5-32.95 8.35-34.3 11.2-35.65 14.45-35.65L14.45-35.65Q17.7-35.65 20.5-34.3 23.3-32.95 25.05-30.4 26.8-27.85 26.8-24.2L26.8-24.2 26.8-10.65Q26.8-10 27.1-9.53 27.4-9.05 27.85-8.8 28.3-8.55 28.8-8.55L28.8-8.55Q29.35-8.55 29.85-8.8 30.35-9.05 30.65-9.53 30.95-10 30.95-10.65L30.95-10.65 30.95-24.2Q30.95-27.85 32.7-30.4 34.45-32.95 37.27-34.3 40.1-35.65 43.3-35.65L43.3-35.65Q46.5-35.65 49.3-34.3 52.1-32.95 53.85-30.4 55.6-27.85 55.6-24.2L55.6-24.2 55.6 0 45.35 0 45.35-24.45Q45.35-25.05 45.05-25.48 44.75-25.9 44.3-26.15 43.85-26.4 43.3-26.4L43.3-26.4Q42.75-26.4 42.25-26.15 41.75-25.9 41.48-25.48 41.2-25.05 41.2-24.45L41.2-24.45 41.2-10.75Q41.2-7.05 39.43-4.5 37.65-1.95 34.85-0.65 32.05 0.65 28.85 0.65ZM75.4 0.6L75.4 0.6Q70.85 0.6 67.32-1.18 63.8-2.95 61.8-6.25 59.8-9.55 59.8-14.05L59.8-14.05 59.8-35 70.4-35 70.4-13.6Q70.4-12 71.02-10.73 71.65-9.45 72.77-8.75 73.9-8.05 75.4-8.05L75.4-8.05Q76.95-8.05 78.05-8.75 79.15-9.45 79.77-10.73 80.4-12 80.4-13.6L80.4-13.6 80.4-35 91-35 91-14.05Q91-9.55 89-6.25 87-2.95 83.5-1.18 80 0.6 75.4 0.6ZM112.55 0L95.9 0 95.9-8.45 110.75-8.45Q111.6-8.45 112.17-8.8 112.75-9.15 113.07-9.73 113.4-10.3 113.4-10.95L113.4-10.95Q113.4-11.65 113.07-12.23 112.75-12.8 112.17-13.15 111.6-13.5 110.75-13.5L110.75-13.5 106.25-13.5Q103-13.5 100.35-14.75 97.7-16 96.12-18.38 94.55-20.75 94.55-24.1L94.55-24.1Q94.55-27.4 96.05-29.85 97.55-32.3 100.1-33.65 102.65-35 105.75-35L105.75-35 121.7-35 121.7-26.55 107.2-26.55Q106.5-26.55 105.97-26.25 105.45-25.95 105.17-25.45 104.9-24.95 104.9-24.35L104.9-24.35Q104.9-23.75 105.17-23.25 105.45-22.75 105.97-22.43 106.5-22.1 107.2-22.1L107.2-22.1 112.05-22.1Q115.6-22.1 118.25-20.78 120.9-19.45 122.35-17.1 123.8-14.75 123.8-11.55L123.8-11.55Q123.8-7.9 122.27-5.3 120.75-2.7 118.2-1.35 115.65 0 112.55 0L112.55 0ZM148.54 0L126.79 0 126.79-8.45 132.24-8.45 132.24-26.55 126.79-26.55 126.79-35 148.54-35 148.54-26.55 143.04-26.55 143.04-8.45 148.54-8.45 148.54 0ZM176.59 0L171.29 0Q166.59 0 162.89-1.28 159.19-2.55 156.64-4.88 154.09-7.2 152.74-10.4 151.39-13.6 151.39-17.5L151.39-17.5Q151.39-21.4 152.74-24.6 154.09-27.8 156.67-30.13 159.24-32.45 162.92-33.73 166.59-35 171.29-35L171.29-35 176.59-35 176.59-26.55 171.64-26.55Q169.34-26.55 167.59-25.85 165.84-25.15 164.69-23.93 163.54-22.7 162.97-21.05 162.39-19.4 162.39-17.5L162.39-17.5Q162.39-15.6 162.97-13.95 163.54-12.3 164.69-11.08 165.84-9.85 167.59-9.15 169.34-8.45 171.64-8.45L171.64-8.45 176.59-8.45 176.59 0ZM201.04 0L179.29 0 179.29-8.45 184.74-8.45 184.74-26.55 179.29-26.55 179.29-35 201.04-35 201.04-26.55 195.54-26.55 195.54-8.45 201.04-8.45 201.04 0ZM227.04 0L216.39 0Q212.84 0 210.19-1.5 207.54-3 206.09-5.48 204.64-7.95 204.64-10.95L204.64-10.95 204.64-35 215.44-35 215.44-10.85Q215.44-9.9 216.11-9.18 216.79-8.45 217.79-8.45L217.79-8.45 227.04-8.45 227.04 0Z" opacity="1" transform="matrix(1,0,0,1,0,0)" fill="#f5fd00" class="undefined-text-0" data-fill-palette-color="primary" id="text-0"></path></svg></g></svg></g></svg></g></svg></g><g><svg viewBox="0 0 136.93723097532114 167.05604608" height="167.05604608" width="136.93723097532114"><g><svg xmlns="http://www.w3.org/2000/svg" xmlns:xlink="http://www.w3.org/1999/xlink" version="1.1" x="0" y="0" viewBox="4.543999671936035 4.208000183105469 19.332000732421875 23.583999633789062" enable-background="new 0 0 32 32" xml:space="preserve" height="167.05604608" width="136.93723097532114" class="icon-icon-0" data-fill-palette-color="accent" id="icon-0"><path d="M10.96 8.042v6.041 9.862c-0.677-0.45-1.636-0.736-2.708-0.736-2.048 0-3.708 1.025-3.708 2.292 0 1.265 1.66 2.291 3.708 2.291s3.708-1.026 3.708-2.291V13.786l10.916-3.24v9.565c-0.678-0.45-1.635-0.736-2.709-0.736-2.047 0-3.707 1.025-3.707 2.292 0 1.265 1.66 2.291 3.707 2.291 2.049 0 3.709-1.026 3.709-2.291V10.249 4.208L10.96 8.042z" fill="#f5fd00" data-fill-palette-color="accent"></path></svg></g></svg></g></svg></g></svg><rect width="395.52" height="120.67840752071184" fill="none" stroke="none" visibility="hidden"></rect></g></svg></g></svg>